<?xml version="1.0" encoding="UTF-8" standalone="no"?>
<!DOCTYPE svg PUBLIC "-//W3C//DTD SVG 1.1//EN" "http://www.w3.org/Graphics/SVG/1.1/DTD/svg11.dtd">
<svg width="100%" height="100%" viewBox="0 0 833 646" version="1.1" xmlns="http://www.w3.org/2000/svg" xmlns:xlink="http://www.w3.org/1999/xlink" xml:space="preserve" xmlns:serif="http://www.serif.com/" style="fill-rule:evenodd;clip-rule:evenodd;stroke-linejoin:round;stroke-miterlimit:2;">
    <g id="efdf5e1f-6b90-40c1-9274-afa2b16f39be-380" transform="matrix(1,0,0,1,-183.986,-127)">
        <path d="M710.363,771.357C710.363,771.357 697.61,739.966 735.868,716.423L710.363,771.357Z" style="fill:rgb(230,230,230);fill-rule:nonzero;"/>
    </g>
    <g id="af7fe47f-56e6-4bb6-aa0f-d6efaf86a160-381" transform="matrix(1,0,0,1,-183.986,-127)">
        <path d="M694.68,770.786C694.68,770.786 690.79,748.412 660.68,748.604L694.68,770.786Z" style="fill:rgb(230,230,230);fill-rule:nonzero;"/>
    </g>
    <g id="a08d42bc-6ae2-46d7-9736-aba59e52cc48-382" transform="matrix(1,0,0,1,-183.986,-127)">
        <path d="M982.319,771.357C982.319,771.357 965.47,729.885 1016.01,698.782L982.319,771.357Z" style="fill:rgb(230,230,230);fill-rule:nonzero;"/>
    </g>
    <g id="bafd7749-4c33-42a1-9524-e744b9f16454-383" transform="matrix(1,0,0,1,-183.986,-127)">
        <path d="M961.598,770.602C961.598,770.602 956.459,741.043 916.679,741.297" style="fill:rgb(230,230,230);fill-rule:nonzero;"/>
    </g>
    <path d="M483.215,179.569L466.576,170.731L467.821,170.069L484.46,178.908L483.215,179.569Z" style="fill:rgb(203,203,203);fill-rule:nonzero;"/>
    <path d="M468.701,179.569L467.457,178.908L484.095,170.069L485.34,170.731L468.701,179.569Z" style="fill:rgb(203,203,203);fill-rule:nonzero;"/>
    <g transform="matrix(0.456046,-0.889956,0.889956,0.456046,-108.891,475.961)">
        <rect x="529.915" y="237.409" width="1.761" height="5.282" style="fill:rgb(203,203,203);"/>
    </g>
    <g transform="matrix(1,0,0,1,-183.986,-127)">
        <path d="M626.3,289.978L616.945,285.184L617.747,283.617L627.103,288.411L626.3,289.978ZM607.589,280.39L598.233,275.596L599.036,274.029L608.392,278.823L607.589,280.39ZM588.878,270.802L579.522,266.008L580.325,264.441L589.681,269.235L588.878,270.802ZM570.167,261.214L560.811,256.42L561.614,254.853L570.97,259.647L570.167,261.214ZM551.455,251.626L542.1,246.832L542.903,245.265L552.258,250.059L551.455,251.626Z" style="fill:rgb(203,203,203);fill-rule:nonzero;"/>
    </g>
    <g transform="matrix(0.456046,-0.889956,0.889956,0.456046,-99.4305,601.726)">
        <rect x="637.527" y="292.552" width="1.761" height="5.282" style="fill:rgb(203,203,203);"/>
    </g>
    <g transform="matrix(1,0,0,1,-183.986,-127)">
        <path d="M281.557,355.92C281.557,356.47 281.539,357.016 281.504,357.556C281.304,360.675 280.516,363.728 279.182,366.553C279.171,366.577 279.159,366.6 279.149,366.622C279.087,366.753 279.023,366.884 278.957,367.014C278.561,367.813 278.12,368.59 277.639,369.341C273.175,376.337 265.497,380.657 257.2,380.843L257.447,395.02L260.662,393.327L261.236,394.418L257.471,396.401L257.931,422.731L257.936,423.083L255.451,423.636L255.456,423.283L256.238,380.844C249.592,380.749 243.255,377.991 238.655,373.194C238.498,373.032 238.343,372.864 238.191,372.699L238.174,372.68C236.276,370.61 234.741,368.234 233.633,365.653C233.657,365.681 233.683,365.707 233.707,365.734C228.541,353.654 233.765,339.456 245.53,333.605C245.616,333.562 245.704,333.52 245.79,333.477C257.416,327.877 271.567,332.173 278.118,343.291C278.27,343.546 278.416,343.807 278.557,344.069C280.531,347.707 281.562,351.782 281.557,355.92Z" style="fill:rgb(229,229,229);fill-rule:nonzero;"/>
    </g>
    <circle cx="94.215" cy="206.962" r="32.674" style="fill:rgb(229,229,229);"/>
    <g transform="matrix(1,0,0,1,-183.986,-127)">
        <path d="M254.076,312.138C252.34,316.198 251.445,320.567 251.445,324.983C251.445,342.909 266.196,357.659 284.122,357.659C293.438,357.659 302.323,353.675 308.521,346.719C303.388,358.726 291.531,366.553 278.474,366.553C260.547,366.553 245.797,351.802 245.797,333.876C245.797,325.862 248.745,318.121 254.076,312.138Z" style="fill-opacity:0.2;fill-rule:nonzero;"/>
    </g>
    <path d="M95.983,297.986L92.646,297.05L92.653,296.691L93.653,242.341L93.703,239.631L93.704,239.552L93.879,230.056L94.132,216.293L94.132,216.291L94.304,206.962L94.396,206.962L94.572,217.069L94.801,230.224L94.965,239.558L94.965,239.627L94.972,240.012L94.972,240.014L95.289,258.209L95.322,260.017L95.977,297.624L95.983,297.986Z" style="fill:rgb(63,61,86);fill-rule:nonzero;"/>
    <g transform="matrix(0.884859,-0.46586,0.46586,0.884859,-331.028,48.3268)">
        <rect x="278.112" y="384.319" width="6.104" height="1.616" style="fill:rgb(63,61,86);"/>
    </g>
    <g transform="matrix(1,0,0,1,-183.986,-127)">
        <path d="M701.755,228.216C660.515,225.778 619.15,226.414 578.004,230.119C558.173,231.911 538.025,233.847 518.56,238.173C502.882,241.658 484.685,247.547 474.916,261.264C470.772,266.862 469.482,274.091 471.436,280.777C473.765,288.597 479.559,295.106 485.73,300.203C499.933,311.937 517.555,318.764 533.296,328.086C562.036,345.106 588.339,368.046 605.222,397.187C612.651,410.01 619.718,427.061 611.445,441.191C603.341,455.033 585.25,459.802 570.496,462.051C552.003,464.87 532.955,464.106 514.385,462.527C494.026,460.629 473.782,457.664 453.734,453.644C414.459,446.102 375.542,436.509 335.721,432.147C315.755,429.798 295.62,429.216 275.551,430.407C257.427,431.629 239.147,434.496 222.121,441.032C209.001,446.068 195.015,453.687 187.928,466.394C181.096,478.642 183.761,492.767 191.2,504.069C200.15,517.666 214.107,526.984 228.618,533.794C245.139,541.548 262.811,546.575 280.505,550.849C289.478,553.017 298.501,554.977 307.524,556.927C309.407,557.333 310.211,554.442 308.322,554.034C290.126,550.102 271.877,546.157 254.132,540.465C237.712,535.198 220.908,528.451 207.461,517.391C196.582,508.444 186.239,495.374 186.881,480.515C187.528,465.536 200.097,455.077 212.415,448.639C227.81,440.594 245.3,436.675 262.438,434.627C282.062,432.44 301.853,432.171 321.529,433.823C361.256,436.846 400.095,445.896 439.045,453.789C476.885,461.457 515.906,468.558 554.684,466.591C570.054,465.812 586.523,463.609 600.095,455.851C606.308,452.299 611.911,447.289 615.069,440.77C617.914,434.569 618.814,427.648 617.65,420.926C615.449,406.156 606.676,392.46 597.923,380.695C588.328,367.936 577.198,356.406 564.783,346.367C551.159,335.403 536.469,325.833 520.934,317.802C512.696,313.465 504.341,309.294 496.49,304.27C488.962,299.453 481.536,293.657 476.939,285.838C472.963,279.074 472.234,271.355 476.375,264.496C480.564,257.558 487.78,252.719 494.897,249.183C512.043,240.664 531.977,238.384 550.736,236.047C591.016,231.047 631.609,229.023 672.187,229.991C682.049,230.223 691.906,230.632 701.755,231.216C703.684,231.33 703.677,228.329 701.755,228.216L701.755,228.216Z" style="fill-rule:nonzero;"/>
    </g>
    <g transform="matrix(1,0,0,1,-183.986,-127)">
        <path d="M675.593,132.052L681.823,127.07C676.983,126.536 674.995,129.175 674.181,131.264C670.4,129.694 666.285,131.752 666.285,131.752L678.748,136.277C678.12,134.597 677.025,133.132 675.593,132.052Z" style="fill:rgb(63,61,86);fill-rule:nonzero;"/>
    </g>
    <g transform="matrix(1,0,0,1,-183.986,-127)">
        <path d="M645.361,147.825L651.59,142.843C646.751,142.309 644.763,144.948 643.949,147.037C640.168,145.468 636.052,147.525 636.052,147.525L648.516,152.05C647.888,150.37 646.793,148.905 645.361,147.825Z" style="fill:rgb(63,61,86);fill-rule:nonzero;"/>
    </g>
    <g transform="matrix(1,0,0,1,-183.986,-127)">
        <path d="M675.593,172.8L681.823,167.817C676.983,167.283 674.995,169.923 674.181,172.012C670.4,170.442 666.285,172.499 666.285,172.499L678.748,177.024C678.12,175.345 677.025,173.879 675.593,172.8Z" style="fill:rgb(63,61,86);fill-rule:nonzero;"/>
    </g>
    <g id="e2dfab6d-8627-4cc0-b13e-69de57259a01">
        <circle id="bedd3b2f-f695-46eb-9812-80ad4d1341b6" cx="398.219" cy="34.413" r="18.768" style="fill:rgb(249,110,138);"/>
        <g id="efdddea5-7f44-48b8-bec9-83339a7f085f-384" transform="matrix(1,0,0,1,-183.986,-127)">
            <path d="M641.059,219.247L548.986,219.247C548.871,219.249 548.755,219.24 548.642,219.22L592.189,143.796C592.729,142.841 593.745,142.248 594.843,142.248C595.94,142.248 596.956,142.841 597.496,143.796L626.72,194.41L628.12,196.831L641.059,219.247Z" style="fill:rgb(47,63,112);fill-rule:nonzero;"/>
        </g>
        <g id="f8d22fd6-a75d-4da9-80c1-fba8d7f50740-385" transform="matrix(1,0,0,1,-183.986,-127)">
            <path d="M692.321,219.248L612.687,219.248L628.118,196.834L629.228,195.219L649.336,166.009C650.107,165.039 651.281,164.473 652.52,164.473C653.59,164.473 654.618,164.895 655.38,165.648C655.484,165.762 655.58,165.882 655.669,166.009L692.321,219.248Z" style="fill:rgb(47,63,112);fill-rule:nonzero;"/>
        </g>
    </g>
    <g transform="matrix(1,0,0,1,-183.986,-127)">
        <path d="M560.96,392.235C569.688,396.597 575.001,402.358 575.001,408.677C575.001,422.289 550.37,433.323 519.986,433.323C506.776,433.323 494.657,431.236 485.173,427.759C495.246,432.794 509.868,435.964 526.148,435.964C556.531,435.964 581.163,424.929 581.163,411.317C581.163,403.623 573.29,396.755 560.96,392.235Z" style="fill:rgb(241,241,241);fill-rule:nonzero;"/>
    </g>
    <g transform="matrix(1,0,0,1,-183.986,-127)">
        <path d="M580.373,401.585C590.22,406.507 596.216,413.008 596.216,420.138C596.216,435.497 568.422,447.948 534.138,447.948C519.232,447.948 505.557,445.593 494.856,441.67C506.222,447.351 522.721,450.928 541.091,450.928C575.375,450.928 603.169,438.477 603.169,423.117C603.169,414.436 594.285,406.685 580.373,401.585Z" style="fill:rgb(241,241,241);fill-rule:nonzero;"/>
    </g>
    <g transform="matrix(1,0,0,1,-183.986,-127)">
        <path d="M553.531,396.353C559.68,399.426 563.423,403.485 563.423,407.937C563.423,417.527 546.07,425.301 524.664,425.301C516.324,425.409 508.028,424.083 500.137,421.381C507.234,424.928 517.535,427.162 529.005,427.162C550.411,427.162 567.764,419.387 567.764,409.797C567.764,404.377 562.218,399.538 553.531,396.353Z" style="fill:rgb(241,241,241);fill-rule:nonzero;"/>
    </g>
    <g transform="matrix(1,0,0,1,-183.986,-127)">
        <path d="M467.141,394.593C467.141,394.593 468.492,414.341 507.222,414.341C545.953,414.341 557.516,394.593 557.516,394.593L467.141,394.593Z" style="fill:rgb(63,61,86);fill-rule:nonzero;"/>
    </g>
    <g transform="matrix(1,0,0,1,-183.986,-127)">
        <path d="M522.115,342.777C516.525,338.531 509.503,336.61 502.531,337.42C514.743,340.365 523.419,351.381 523.419,363.943C523.419,377.747 512.942,389.486 499.227,391.049C501.324,391.556 503.473,391.811 505.63,391.811C520.6,391.811 532.918,379.493 532.918,364.523C532.918,355.99 528.915,347.932 522.115,342.777L522.115,342.777Z" style="fill:rgb(63,61,86);fill-rule:nonzero;"/>
    </g>
    <rect x="322.796" y="206.856" width="2.641" height="62.858" style="fill:rgb(63,61,86);"/>
    <g transform="matrix(1,0,0,1,-183.986,-127)">
        <path d="M682.969,287.153L682.955,287.128L682.92,285.593L691.192,273.582L682.929,284.444L682.9,284.768L682.617,272.491L689.763,260.038L682.597,270.335L682.672,244.9L682.671,244.815L682.669,244.898L682.195,264.944L675.682,256.802L682.173,266.671L682.031,277.653L676.038,266.935L682.009,279.267L681.93,285.374L681.711,302.291L681.695,303.555C682.247,303.559 682.793,303.55 683.334,303.527L682.959,287.278L682.969,287.153Z" style="fill:rgb(203,203,203);fill-rule:nonzero;"/>
    </g>
    <g transform="matrix(1,0,0,1,-183.986,-127)">
        <path d="M643.359,292.434L643.344,292.41L643.309,290.875L651.582,278.863L643.319,289.725L643.289,290.05L643.006,277.773L650.152,265.32L642.986,275.616L643.061,250.181L643.06,250.096L643.058,250.18L642.584,270.226L636.071,262.083L642.563,271.953L642.42,282.934L636.428,272.217L642.398,284.549L642.319,290.655L642.1,307.572L642.084,308.836C642.636,308.841 643.182,308.831 643.723,308.809L643.348,292.56L643.359,292.434Z" style="fill:rgb(203,203,203);fill-rule:nonzero;"/>
    </g>
    <g transform="matrix(1,0,0,1,-183.986,-127)">
        <path d="M662.724,275.71L662.71,275.685L662.674,274.15L670.947,262.139L662.684,273.001L662.654,273.325L662.372,261.048L669.517,248.595L662.351,258.891L662.426,233.457L662.426,233.372L662.424,233.455L661.949,253.501L655.437,245.359L661.928,255.228L661.786,266.21L655.793,255.492L661.764,267.824L661.684,273.931L661.465,290.848L661.45,292.112C662.001,292.116 662.548,292.107 663.088,292.084L662.714,275.835L662.724,275.71Z" style="fill:rgb(203,203,203);fill-rule:nonzero;"/>
    </g>
    <circle cx="151.59" cy="430.437" r="10.563" style="fill:rgb(47,63,112);"/>
    <path d="M715.399,625.419L705.62,629.052L686.952,593.062L701.385,587.7L715.399,625.419Z" style="fill:rgb(255,183,183);fill-rule:nonzero;"/>
    <g transform="matrix(1,0,0,1,-183.986,-127)">
        <path d="M905.401,760.971L873.869,772.686L873.721,772.287C871.22,765.555 874.701,757.956 881.433,755.454L881.434,755.454L900.693,748.299L905.401,760.971Z" style="fill:rgb(47,46,65);fill-rule:nonzero;"/>
    </g>
    <path d="M619.162,635.574L608.73,635.573L603.767,595.335L619.164,595.336L619.162,635.574Z" style="fill:rgb(255,183,183);fill-rule:nonzero;"/>
    <g transform="matrix(1,0,0,1,-183.986,-127)">
        <path d="M804.958,772.686L771.32,772.685L771.32,772.259C771.321,765.077 777.231,759.167 784.413,759.167L804.958,759.168L804.958,772.686Z" style="fill:rgb(47,46,65);fill-rule:nonzero;"/>
    </g>
    <g transform="matrix(1,0,0,1,-183.986,-127)">
        <path d="M850.91,483.505L847.506,476.697L818.575,491.163L819.426,497.119L813.895,504.352C813.895,504.352 804.535,509.458 806.236,526.476L807.938,542.644L810.066,563.491L795.174,614.972L787.516,683.046L781.985,737.93L808.789,736.654L833.466,647.307L876.863,743.461L906.645,735.803L865.801,640.5L860.695,600.506C860.695,600.506 864.099,579.233 847.932,564.768L850.484,557.109L850.484,547.672L858.994,502.65L850.91,483.505Z" style="fill:rgb(47,46,65);fill-rule:nonzero;"/>
    </g>
    <g transform="matrix(0.27146,-0.96245,0.96245,0.27146,-161.014,1131.59)">
        <rect x="808.345" y="613.621" width="68.961" height="1" style="fill-opacity:0.2;"/>
    </g>
    <rect x="624.378" y="436.491" width="41.695" height="4.255" style="fill:rgb(63,61,86);"/>
    <ellipse cx="624.378" cy="439.044" rx="1.702" ry="4.255" style="fill:rgb(63,61,86);"/>
    <g transform="matrix(0.877454,-0.47966,0.47966,0.877454,-299.713,325.223)">
        <circle cx="827.167" cy="452.598" r="22.682" style="fill:rgb(255,183,183);"/>
    </g>
    <circle cx="677.889" cy="297.435" r="20.066" style="fill:rgb(47,46,65);"/>
    <g transform="matrix(1,0,0,1,-183.986,-127)">
        <path d="M887.339,422.285C887.892,424.144 888.173,426.072 888.173,428.011C888.173,439.019 879.114,448.078 868.106,448.078C858.039,448.078 849.452,440.502 848.196,430.514C850.722,438.997 858.577,444.854 867.428,444.854C878.437,444.854 887.495,435.795 887.495,424.786C887.495,423.95 887.443,423.115 887.339,422.285Z" style="fill:rgb(47,46,65);fill-rule:nonzero;"/>
    </g>
    <g transform="matrix(1,0,0,1,-183.986,-127)">
        <path d="M808.067,446.3C807.966,447.189 807.916,448.082 807.916,448.977C807.916,461.991 818.625,472.701 831.64,472.701C844.655,472.701 855.364,461.991 855.364,448.977C855.364,435.962 844.655,425.252 831.64,425.252C828.401,425.252 825.197,425.915 822.224,427.201C818.261,424.005 813.349,424.996 809.354,428.368C804.838,432.182 803.497,434.801 799.994,441.073C803.439,441.556 804.622,445.817 808.067,446.3Z" style="fill:rgb(47,46,65);fill-rule:nonzero;"/>
    </g>
    <g transform="matrix(1,0,0,1,-183.986,-127)">
        <path d="M891.441,514.511C891.187,521.233 890.684,534.464 890.684,535.139C890.684,535.851 880.653,556.62 876.32,565.558L876.32,565.563C876.012,566.193 875.735,566.764 875.491,567.267C874.808,568.681 873.357,569.572 871.787,569.542L852.85,569.202C850.7,569.166 848.938,567.417 848.884,565.268L846.772,481.953C846.771,481.936 846.771,481.918 846.771,481.901C846.771,480.771 847.7,479.842 848.83,479.841L873.252,479.841C875.353,479.842 877.277,481.049 878.192,482.941L889.913,507.191C891.012,509.47 891.537,511.983 891.441,514.511L891.441,514.511Z" style="fill:rgb(249,110,138);fill-rule:nonzero;"/>
    </g>
    <g transform="matrix(1,0,0,1,-183.986,-127)">
        <path d="M848.555,559.551C843.695,556.606 839.329,552.916 835.615,548.615C826.988,538.912 821.738,526.666 820.66,513.727C819.697,502.655 821.894,494.424 827.19,489.264C833.921,482.705 843.084,483.658 843.471,483.702L843.881,483.749L850.089,489.002L848.332,491.078L842.778,486.378C841.077,486.293 834.136,486.274 829.066,491.234C824.398,495.799 822.482,503.288 823.369,513.492C824.395,525.811 829.381,537.474 837.577,546.729C841.113,550.819 845.259,554.34 849.867,557.169L848.555,559.551Z" style="fill:rgb(47,63,112);fill-rule:nonzero;"/>
    </g>
    <g transform="matrix(0.979553,-0.201184,0.201184,0.979553,-273.229,58.3678)">
        <rect x="850.451" y="531.287" width="33.78" height="0.906" style="fill:rgb(63,61,86);"/>
    </g>
    <g transform="matrix(0.999168,-0.0407849,0.0407849,0.999168,-203.912,-91.3976)">
        <rect x="862.154" y="479.819" width="0.907" height="52.695" style="fill:rgb(63,61,86);"/>
    </g>
    <g transform="matrix(1,0,0,1,-183.986,-127)">
        <path d="M891.441,514.511C891.187,521.233 890.684,534.464 890.684,535.139C890.684,535.851 880.653,556.62 876.32,565.558L884.397,518.659C885.033,514.99 887.603,511.937 891.11,510.686C891.382,511.942 891.493,513.227 891.441,514.511Z" style="fill:rgb(225,89,112);fill-rule:nonzero;"/>
    </g>
    <g transform="matrix(1,0,0,1,-183.986,-127)">
        <path d="M841.815,612.8C842.901,611.4 843.491,609.679 843.491,607.908C843.491,604.947 841.842,602.219 839.22,600.843L840.862,582.684L830.07,578.994L828.112,604.672C827.658,605.695 827.423,606.803 827.423,607.923C827.423,612.323 831.045,615.945 835.446,615.945C837.941,615.945 840.298,614.781 841.815,612.8L841.815,612.8Z" style="fill:rgb(255,183,183);fill-rule:nonzero;"/>
    </g>
    <g transform="matrix(1,0,0,1,-183.986,-127)">
        <path d="M843.225,595.228L824.102,594.535L824.911,502.312C824.883,496.974 828.292,492.185 833.345,490.464C835.653,489.697 838.148,489.695 840.457,490.457C845.829,492.276 849.311,497.545 848.879,503.2L843.225,595.228Z" style="fill:rgb(203,203,203);fill-rule:nonzero;"/>
    </g>
    <g transform="matrix(1,0,0,1,-183.986,-127)">
        <path d="M1010.99,773L629.987,773C629.438,773 628.987,772.549 628.987,772C628.987,771.451 629.438,771 629.987,771L1010.99,771C1011.53,771 1011.99,771.451 1011.99,772C1011.99,772.549 1011.53,773 1010.99,773Z" style="fill:rgb(203,203,203);fill-rule:nonzero;"/>
    </g>
</svg>
